<svg width="92" height="50" viewBox="0 0 92 50" fill="none" xmlns="http://www.w3.org/2000/svg">
<g clip-path="url(#clip0_87_12)">
<path fill-rule="evenodd" clip-rule="evenodd" d="M1.83997 8.02101C1.83997 7.6281 1.99506 7.25127 2.2711 6.97345L6.92884 2.28571C7.20487 2.0079 7.57929 1.85181 7.96969 1.85181H23C23.508 1.85181 23.92 2.26636 23.92 2.77773C23.92 3.2891 23.508 3.70366 23 3.70366H8.73183C8.34144 3.70366 7.96704 3.85975 7.69098 4.13758L4.1111 7.74051C3.83506 8.01834 3.67997 8.39516 3.67997 8.78807V26.397C3.67997 26.79 3.83506 27.1668 4.1111 27.4446L7.69098 31.0475C7.96704 31.3253 8.34144 31.4814 8.73185 31.4814H23C23.508 31.4814 23.92 31.8961 23.92 32.4074C23.92 32.9187 23.508 33.3333 23 33.3333H7.96969C7.57929 33.3333 7.20487 33.1772 6.92884 32.8994L2.2711 28.2116C1.99506 27.9338 1.83997 27.557 1.83997 27.164V8.02101Z" fill="white"/>
<path d="M6.27836 1.63114L1.62064 6.31886L2.92172 7.62832L7.57944 2.9406L6.27836 1.63114ZM23 0.926029L7.96976 0.926025V2.77788H23V0.926029ZM8.73191 4.62973H23V2.77788H8.73191V4.62973ZM4.76172 8.39538L8.34159 4.79245L7.04051 3.48299L3.46064 7.08593L4.76172 8.39538ZM4.60004 26.3971V8.78821H2.76004V26.3971H4.60004ZM8.34161 30.3929L4.76172 26.7899L3.46064 28.0995L7.04053 31.7023L8.34161 30.3929ZM8.73193 32.4075H23V30.5557H8.73193V32.4075ZM23 32.4075H7.96976V34.2594H23V32.4075ZM1.62064 28.8666L6.27836 33.5542L7.57944 32.2447L2.92172 27.5571L1.62064 28.8666ZM0.920044 8.02116V27.1642H2.76004V8.02116H0.920044ZM2.92172 27.5571C2.81821 27.4529 2.76004 27.3116 2.76004 27.1642H0.920044C0.920044 27.8027 1.17206 28.4151 1.62064 28.8666L2.92172 27.5571ZM7.96976 32.4075C7.82337 32.4075 7.68296 32.349 7.57944 32.2447L6.27836 33.5542C6.72695 34.0057 7.33537 34.2594 7.96976 34.2594V32.4075ZM23 32.4075V34.2594C24.0163 34.2594 24.84 33.4303 24.84 32.4075H23ZM23 32.4075H24.84C24.84 31.3847 24.0163 30.5557 23 30.5557V32.4075ZM7.04053 31.7023C7.48912 32.1538 8.09753 32.4075 8.73193 32.4075V30.5557C8.58552 30.5557 8.44513 30.4971 8.34161 30.3929L7.04053 31.7023ZM2.76004 26.3971C2.76004 27.0357 3.01205 27.6481 3.46064 28.0995L4.76172 26.7899C4.65821 26.6858 4.60004 26.5445 4.60004 26.3971H2.76004ZM3.46064 7.08593C3.01205 7.5374 2.76004 8.14973 2.76004 8.78821H4.60004C4.60004 8.64088 4.65821 8.49956 4.76172 8.39538L3.46064 7.08593ZM8.73191 2.77788C8.09752 2.77788 7.4891 3.03153 7.04051 3.48299L8.34159 4.79245C8.44511 4.68827 8.58552 4.62973 8.73191 4.62973V2.77788ZM23 2.77788V4.62973C24.0163 4.62973 24.84 3.80064 24.84 2.77788H23ZM23 2.77788H24.84C24.84 1.75513 24.0163 0.926029 23 0.926029V2.77788ZM1.62064 6.31886C1.17206 6.77034 0.920044 7.38267 0.920044 8.02116H2.76004C2.76004 7.87382 2.81821 7.73251 2.92172 7.62832L1.62064 6.31886ZM7.57944 2.9406C7.68296 2.83641 7.82337 2.77788 7.96976 2.77788V0.926025C7.33537 0.926025 6.72695 1.17966 6.27836 1.63114L7.57944 2.9406Z" fill="white"/>
<path fill-rule="evenodd" clip-rule="evenodd" d="M90.16 7.7909C90.16 7.54532 90.063 7.30981 89.8906 7.13616L84.9093 2.12301C84.7369 1.94936 84.5029 1.85181 84.2589 1.85181H69C68.4919 1.85181 68.08 2.26636 68.08 2.77773C68.08 3.2891 68.4919 3.70366 69 3.70366H83.4968C83.7407 3.70366 83.9748 3.80121 84.1472 3.97486L88.0506 7.90323C88.223 8.07688 88.32 8.31238 88.32 8.55795V26.6272C88.32 26.8727 88.223 27.1083 88.0506 27.2818L84.1472 31.2103C83.9748 31.3838 83.7407 31.4814 83.4968 31.4814H69C68.4919 31.4814 68.08 31.8961 68.08 32.4074C68.08 32.9187 68.4919 33.3333 69 33.3333H84.2589C84.5029 33.3333 84.7369 33.2357 84.9093 33.0622L89.8906 28.0488C90.063 27.8753 90.16 27.6398 90.16 27.3942V7.7909Z" fill="white"/>
<path d="M85.56 1.46842L90.5411 6.48158L89.24 7.79104L84.259 2.77788L85.56 1.46842ZM69 0.926025H84.259V2.77788H69V0.926025ZM83.4968 4.62973H69V2.77788H83.4968V4.62973ZM87.4 8.5581L83.4968 4.62973L84.7979 3.32027L88.7011 7.24864L87.4 8.5581ZM87.4 26.6273V8.5581H89.24V26.6273H87.4ZM83.4968 30.5557L87.4 26.6273L88.7011 27.9368L84.7979 31.8651L83.4968 30.5557ZM83.4968 32.4075H69V30.5557H83.4968V32.4075ZM69 32.4075H84.259V34.2594H69V32.4075ZM90.5411 28.7038L85.56 33.717L84.259 32.4075L89.24 27.3944L90.5411 28.7038ZM91.08 7.79104V27.3944H89.24V7.79104H91.08ZM89.24 27.3944H91.08C91.08 27.8855 90.8861 28.3566 90.5411 28.7038L89.24 27.3944ZM84.259 32.4075L85.56 33.717C85.215 34.0642 84.7469 34.2594 84.259 34.2594V32.4075ZM69 32.4075V34.2594C67.9838 34.2594 67.16 33.4303 67.16 32.4075H69ZM69 32.4075H67.16C67.16 31.3847 67.9838 30.5557 69 30.5557V32.4075ZM84.7979 31.8651C84.4527 32.2123 83.9848 32.4075 83.4968 32.4075V30.5557L84.7979 31.8651ZM89.24 26.6273C89.24 27.1184 89.0461 27.5895 88.7011 27.9368L87.4 26.6273H89.24ZM88.7011 7.24864C89.0461 7.59593 89.24 8.06695 89.24 8.5581H87.4L88.7011 7.24864ZM83.4968 2.77788C83.9848 2.77788 84.4529 2.97299 84.7979 3.32027L83.4968 4.62973V2.77788ZM69 2.77788V4.62973C67.9838 4.62973 67.16 3.80062 67.16 2.77788H69ZM69 2.77788H67.16C67.16 1.75513 67.9838 0.926025 69 0.926025V2.77788ZM90.5411 6.48158C90.8861 6.82888 91.08 7.2999 91.08 7.79104H89.24L90.5411 6.48158ZM84.259 2.77788V0.926025C84.7469 0.926025 85.215 1.12113 85.56 1.46842L84.259 2.77788Z" fill="white"/>
<path fill-rule="evenodd" clip-rule="evenodd" d="M32.2 1.85181C31.692 1.85181 31.28 2.26636 31.28 2.77773V32.4111C31.28 33.1746 31.5925 33.9046 32.1437 34.4292L43.9457 45.662C44.5477 46.235 45.4896 46.235 46.0917 45.662C46.7432 45.0418 46.7432 43.9983 46.0917 43.3781L33.6779 31.5635C33.6076 31.4966 33.4978 31.4966 33.4275 31.5635C33.3114 31.674 33.12 31.5911 33.12 31.4301V2.77773C33.12 2.26636 32.7081 1.85181 32.2 1.85181Z" fill="white"/>
<path d="M32.2 32.4112V2.77788H30.36V32.4112H32.2ZM44.5779 44.9894L32.7757 33.7568L31.5115 35.1021L43.3136 46.3349L44.5779 44.9894ZM33.0458 32.2364L45.4594 44.051L46.7237 42.7055L34.3101 30.8908L33.0458 32.2364ZM32.2 2.77788V31.4303H34.04V2.77788H32.2ZM34.04 2.77788C34.04 1.75513 33.2162 0.926025 32.2 0.926025V2.77788H34.04ZM32.7954 30.8908C33.2657 30.4432 34.04 30.7788 34.04 31.4303H32.2C32.2 32.4038 33.3568 32.9053 34.0597 32.2364L32.7954 30.8908ZM34.3101 30.8908C33.8851 30.4864 33.2203 30.4864 32.7954 30.8908L34.0597 32.2364C33.7752 32.507 33.3303 32.507 33.0458 32.2364L34.3101 30.8908ZM46.7237 46.3349C47.759 45.3495 47.759 43.691 46.7237 42.7055L45.4594 44.051C45.7271 44.3058 45.7271 44.7345 45.4594 44.9894L46.7237 46.3349ZM43.3136 46.3349C44.2702 47.2455 45.767 47.2455 46.7237 46.3349L45.4594 44.9894C45.2121 45.2247 44.8251 45.2247 44.5779 44.9894L43.3136 46.3349ZM32.2 2.77788V0.926025C31.1838 0.926025 30.36 1.75513 30.36 2.77788H32.2ZM30.36 32.4112C30.36 33.4294 30.7764 34.4027 31.5115 35.1021L32.7757 33.7568C32.4083 33.4069 32.2 32.9203 32.2 32.4112H30.36Z" fill="white"/>
<path fill-rule="evenodd" clip-rule="evenodd" d="M59.3061 1.85181C59.8141 1.85181 60.2261 2.26636 60.2261 2.77773V32.9396C60.2261 33.1912 60.1243 33.4318 59.9444 33.6064L47.4948 45.6774C47.1385 46.0229 46.5746 46.0229 46.2182 45.6774L45.2915 44.7788C44.916 44.4148 44.916 43.8094 45.2915 43.4453L57.8534 31.2653C57.9204 31.2005 58.0264 31.2005 58.0933 31.2653C58.203 31.3718 58.3861 31.2935 58.3861 31.1401V2.77773C58.3861 2.26636 58.7979 1.85181 59.3061 1.85181Z" fill="white"/>
<path d="M61.1461 32.9397V2.77788H59.3061V32.9397H61.1461ZM48.1331 46.3444L60.5827 34.2734L59.3061 32.9397L46.8565 45.0107L48.1331 46.3444ZM44.6533 45.4458L45.5799 46.3444L46.8565 45.0107L45.9299 44.1121L44.6533 45.4458ZM57.2151 30.5986L44.6533 42.7786L45.9299 44.1121L58.4917 31.9323L57.2151 30.5986ZM57.4661 2.77788V31.1403H59.3061V2.77788H57.4661ZM59.3061 2.77788V0.926025C58.2899 0.926025 57.4661 1.75513 57.4661 2.77788H59.3061ZM57.4551 31.9323C58.1491 32.6053 59.3061 32.1103 59.3061 31.1403H57.4661C57.4661 30.4771 58.257 30.1386 58.7317 30.5986L57.4551 31.9323ZM58.4917 31.9323C58.2023 32.2129 57.7443 32.2129 57.4551 31.9323L58.7317 30.5986C58.3083 30.1882 57.6383 30.1882 57.2151 30.5986L58.4917 31.9323ZM45.9299 44.1121L44.6533 42.7786C43.9022 43.507 43.9022 44.7175 44.6533 45.4458L45.9299 44.1121ZM46.8565 45.0107L45.5799 46.3444C46.2925 47.0353 47.4206 47.0353 48.1331 46.3444L46.8565 45.0107ZM61.1461 2.77788C61.1461 1.75513 60.3224 0.926025 59.3061 0.926025V2.77788H61.1461ZM59.3061 32.9397L60.5827 34.2734C60.9426 33.9244 61.1461 33.4429 61.1461 32.9397H59.3061Z" fill="white"/>
<path d="M49.6799 35.1853H42.3199V50.0001H49.6799V35.1853Z" fill="#25334E"/>
<path fill-rule="evenodd" clip-rule="evenodd" d="M49.6801 5.55566V31.4816H49.7358L55.2001 25.9821V5.55566H49.6801Z" fill="white"/>
<path fill-rule="evenodd" clip-rule="evenodd" d="M42.32 5.55566V31.4816H42.2643L36.8 25.9821V5.55566H42.32Z" fill="white"/>
</g>
<defs>
<clipPath id="clip0_87_12">
<rect width="92" height="50" fill="white"/>
</clipPath>
</defs>
</svg>
